<?xml version="1.0" standalone="no"?>
<!DOCTYPE svg PUBLIC "-//W3C//DTD SVG 20010904//EN"
 "http://www.w3.org/TR/2001/REC-SVG-20010904/DTD/svg10.dtd">
<svg version="1.0" xmlns="http://www.w3.org/2000/svg"
 width="200.000000pt" height="200.000000pt" viewBox="0 0 200.000000 200.000000"
 preserveAspectRatio="xMidYMid meet">
<metadata>
Created by potrace 1.16, written by Peter Selinger 2001-2019
</metadata>
<g transform="translate(0.000000,200.000000) scale(0.100000,-0.100000)"
fill="#000000" stroke="none">
<path d="M0 1000 l0 -1000 1000 0 1000 0 0 1000 0 1000 -1000 0 -1000 0 0
-1000z m1024 764 c10 -4 16 -18 16 -39 0 -32 2 -34 38 -37 36 -3 37 -4 37 -43
0 -39 -1 -40 -40 -45 -35 -4 -40 -9 -43 -33 -3 -22 6 -39 37 -72 36 -40 41
-50 41 -94 0 -38 -6 -56 -25 -79 l-24 -29 23 -22 c28 -26 25 -26 241 42 118
37 140 40 242 41 108 1 112 0 154 -29 80 -56 112 -150 89 -262 -14 -66 -34
-113 -101 -233 -54 -97 -89 -193 -89 -245 l0 -35 -620 0 -620 0 0 28 c0 52
-31 136 -100 267 -101 192 -119 275 -84 378 18 53 76 110 132 128 67 22 202 6
362 -44 202 -63 201 -63 229 -33 20 22 21 25 6 33 -9 5 -22 28 -30 50 -18 52
-5 104 36 140 22 20 29 35 29 64 0 36 -1 38 -37 41 -37 3 -38 4 -38 43 0 39 1
40 38 43 35 3 37 5 37 37 0 40 24 54 64 39z m606 -1354 l0 -50 -630 0 -630 0
0 50 0 50 630 0 630 0 0 -50z"/>
<path d="M378 1276 c-86 -23 -113 -65 -106 -167 4 -56 14 -85 53 -161 102
-200 194 -308 264 -308 32 0 54 41 43 82 -8 32 -10 33 -61 36 -45 3 -53 6 -61
28 -19 48 -14 54 40 54 54 0 54 0 41 48 l-10 33 41 -3 c39 -3 42 -5 52 -43 11
-39 13 -40 58 -43 38 -2 47 -7 52 -25 11 -41 7 -46 -36 -49 -39 -3 -43 -5 -40
-28 4 -35 52 -80 93 -86 30 -5 40 -1 67 26 20 19 38 53 48 88 15 49 15 67 5
132 -7 41 -26 108 -42 148 -16 41 -29 84 -29 98 0 28 -33 47 -165 92 -78 27
-229 63 -252 61 -4 0 -29 -6 -55 -13z"/>
<path d="M1475 1274 c-80 -17 -233 -68 -284 -94 -26 -13 -37 -27 -47 -61 -7
-24 -25 -78 -40 -119 -37 -102 -40 -225 -7 -287 39 -73 82 -89 140 -53 34 20
68 74 58 90 -3 6 -24 10 -46 10 -34 0 -39 3 -39 23 0 35 12 45 59 49 42 3 45
5 55 43 11 37 15 40 50 43 l38 3 -7 -40 -7 -41 52 0 52 0 -7 -32 c-10 -47 -11
-48 -65 -48 -54 0 -70 -15 -70 -64 0 -60 61 -70 127 -20 85 64 231 326 240
430 13 140 -83 204 -252 168z"/>
</g>
</svg>
