<?xml version="1.0" standalone="no"?>
<!DOCTYPE svg PUBLIC "-//W3C//DTD SVG 20010904//EN"
 "http://www.w3.org/TR/2001/REC-SVG-20010904/DTD/svg10.dtd">
<svg version="1.0" xmlns="http://www.w3.org/2000/svg"
 width="900.000000pt" height="685.000000pt" viewBox="0 0 900.000000 685.000000"
 preserveAspectRatio="xMidYMid meet">
<metadata>
Created by potrace 1.16, written by Peter Selinger 2001-2019
</metadata>
<g transform="translate(0.000000,685.000000) scale(0.100000,-0.100000)"
fill="#000000" stroke="none">
<path d="M2700 5568 c0 -789 4 -1324 10 -1390 26 -271 126 -512 296 -707 62
-73 180 -181 196 -181 4 0 8 340 8 755 0 415 3 755 8 755 4 0 129 -102 278
-228 308 -258 649 -541 676 -560 10 -8 -11 33 -48 90 -190 291 -287 444 -291
455 -4 10 8 13 45 13 32 0 52 -5 55 -13 10 -26 359 -558 364 -554 2 3 -32 123
-77 268 -44 145 -83 272 -86 282 -5 14 1 17 41 17 28 0 47 -5 50 -12 2 -7 48
-158 102 -335 l98 -322 3 335 2 334 45 0 45 0 2 -337 3 -338 22 70 c13 39 57
190 99 338 l77 267 44 0 c23 0 43 -4 43 -8 0 -5 -36 -130 -80 -278 -44 -147
-80 -273 -80 -279 0 -5 86 119 192 278 l191 287 49 0 50 0 -23 -37 c-13 -21
-80 -123 -149 -228 -172 -258 -203 -308 -187 -298 19 11 314 255 481 398 275
234 470 395 478 395 4 0 9 -336 10 -747 l3 -748 82 82 c131 132 243 315 301
493 59 180 56 81 59 1588 l4 1382 -1746 0 -1745 0 0 -1282z m1875 1031 l0 -84
-95 0 -95 0 0 85 0 85 49 26 49 27 46 -27 46 -27 0 -85z m90 -179 c114 -35
191 -84 290 -184 70 -70 99 -109 127 -166 39 -80 68 -178 68 -229 l0 -31 -58
0 -58 0 -11 64 c-29 170 -156 329 -323 404 -310 139 -680 -38 -765 -364 -8
-32 -15 -69 -15 -81 0 -22 -4 -23 -65 -23 l-66 0 6 38 c51 303 260 528 544
588 89 18 236 11 326 -16z m583 -722 l-3 -53 -767 -3 -768 -2 0 55 0 55 771 0
770 0 -3 -52z m-1348 -333 l0 -195 -50 0 -50 0 0 195 0 195 50 0 50 0 0 -195z
m200 0 l0 -195 -50 0 -50 0 0 195 0 195 50 0 50 0 0 -195z m860 0 l0 -195 -55
0 -55 0 0 195 0 195 55 0 55 0 0 -195z m200 -1 l0 -195 -52 3 -53 3 -3 180
c-1 98 0 185 2 192 4 8 24 13 56 13 l50 0 0 -196z m-527 126 c132 -33 147 -40
147 -61 0 -15 -7 -19 -34 -19 -18 0 -48 -3 -65 -6 -30 -6 -31 -8 -31 -60 0
-30 -3 -54 -7 -54 -5 0 -20 13 -36 29 -29 30 -85 51 -133 51 -39 -1 -104 -31
-134 -65 l-25 -27 -5 63 -5 64 -62 14 c-49 11 -63 19 -63 33 0 10 3 18 8 19 4
0 68 9 142 18 180 24 208 24 303 1z m-407 -102 c4 -6 9 -58 10 -115 l3 -103
-43 0 -42 0 8 73 c4 39 5 85 2 100 -3 16 0 34 6 42 15 18 46 20 56 3z m339
-108 c55 -34 81 -103 63 -168 -35 -128 -207 -153 -279 -40 -16 26 -19 45 -16
91 3 49 8 62 37 92 56 57 128 66 195 25z m-415 -255 l0 -65 -275 0 -275 0 0
65 0 65 275 0 275 0 0 -65z m1200 0 l0 -65 -285 0 -285 0 0 65 0 65 285 0 285
0 0 -65z m0 -230 l0 -65 -875 0 -875 0 0 65 0 65 875 0 875 0 0 -65z"/>
<path d="M5330 4198 c-113 -93 -345 -286 -517 -429 -171 -142 -317 -259 -324
-259 -17 0 -76 46 -344 265 -284 234 -723 585 -730 585 -3 0 -5 -272 -5 -604
l0 -605 138 -77 c75 -42 315 -178 532 -302 217 -124 400 -225 405 -225 6 0
145 81 310 180 165 99 400 238 522 309 l223 129 0 603 c0 331 -1 602 -2 601
-2 0 -95 -77 -208 -171z"/>
<path d="M1418 1911 c-74 -24 -116 -51 -166 -105 -120 -130 -146 -337 -66
-516 32 -72 92 -131 169 -167 84 -39 241 -45 342 -14 167 51 253 188 253 401
-1 148 -32 234 -117 317 -70 69 -137 94 -263 99 -74 3 -108 0 -152 -15z m231
-141 c43 -25 86 -85 103 -145 17 -62 14 -192 -6 -253 -21 -63 -67 -119 -113
-138 -39 -17 -131 -18 -170 -3 -41 15 -83 58 -105 109 -29 65 -36 217 -14 294
41 141 183 204 305 136z"/>
<path d="M4085 1917 c-130 -34 -216 -102 -272 -215 -38 -76 -38 -76 -38 -201
0 -116 2 -130 27 -184 38 -81 77 -126 140 -164 86 -52 161 -66 313 -60 72 3
151 11 178 17 l47 12 0 129 0 129 40 0 41 0 -3 58 -3 57 -162 3 -163 2 0 -59
0 -60 43 -3 42 -3 3 -69 c2 -38 -1 -73 -6 -78 -5 -5 -44 -9 -87 -9 -65 0 -87
4 -134 28 -100 50 -150 161 -138 306 7 84 36 146 88 190 50 43 97 57 192 57
106 0 107 0 107 -76 l0 -64 75 0 76 0 -3 112 -3 112 -60 19 c-78 24 -270 32
-340 14z"/>
<path d="M4957 1919 c-186 -44 -308 -231 -294 -449 18 -263 160 -388 429 -378
93 3 111 7 171 36 117 58 176 150 198 308 33 242 -85 439 -289 483 -61 13
-160 13 -215 0z m217 -153 c134 -78 152 -382 29 -498 -38 -36 -73 -48 -145
-48 -109 0 -171 54 -203 175 -37 142 1 305 84 364 65 46 163 49 235 7z"/>
<path d="M0 1861 l0 -60 43 -3 42 -3 3 -284 c3 -307 4 -301 -51 -301 -28 0
-28 -1 -25 -52 l3 -53 142 -3 143 -3 0 56 c0 54 0 55 -29 55 -63 0 -61 -9 -61
231 0 122 4 219 9 219 5 0 32 -62 60 -137 28 -76 75 -201 105 -278 l54 -140
85 -3 85 -3 50 128 c27 70 73 194 103 276 29 81 57 147 61 147 5 0 8 -96 8
-214 0 -229 1 -226 -51 -226 -16 0 -19 -7 -19 -55 l0 -55 155 0 155 0 0 54 0
55 -37 3 -38 3 -3 293 -2 292 40 0 40 0 0 60 0 60 -144 0 c-128 0 -145 -2
-151 -17 -73 -185 -225 -596 -225 -610 0 -15 -147 346 -227 560 l-25 67 -149
0 -149 0 0 -59z"/>
<path d="M2010 1860 l0 -60 50 0 50 0 -2 -292 -3 -293 -32 -3 c-33 -3 -33 -4
-33 -58 l0 -54 140 0 140 0 0 54 0 55 -37 3 -38 3 -2 215 c-2 205 -2 214 15
194 9 -12 107 -134 217 -273 l200 -251 62 0 63 0 0 350 0 350 40 0 40 0 0 60
0 60 -145 0 -145 0 0 -59 0 -60 38 -3 37 -3 3 -190 c1 -104 0 -196 -3 -203 -3
-10 -23 10 -54 54 -27 38 -121 157 -208 264 l-159 195 -117 3 -117 3 0 -61z"/>
<path d="M2977 1913 c-4 -3 -7 -55 -7 -115 l0 -108 69 0 70 0 3 53 3 52 73 3
72 3 0 -296 0 -295 -35 0 -35 0 0 -55 0 -55 155 0 155 0 0 54 c0 54 0 55 -32
58 l-33 3 0 290 0 290 73 3 c70 3 72 2 72 -21 0 -14 3 -39 6 -56 l7 -31 70 0
70 0 -7 77 c-3 42 -6 93 -6 115 l0 38 -368 0 c-203 0 -372 -3 -375 -7z"/>
<path d="M5537 1914 c-4 -4 -7 -31 -7 -61 l0 -53 45 0 45 0 -2 -292 -3 -293
-32 -3 c-33 -3 -33 -4 -33 -58 l0 -54 145 0 145 0 0 54 0 55 -42 3 -43 3 -3
229 c-1 127 1 227 5 223 3 -4 55 -132 113 -285 l107 -277 83 0 83 0 74 190
c40 105 89 231 108 280 l34 90 1 -227 0 -228 -35 0 -35 0 0 -55 0 -55 155 0
155 0 0 55 0 55 -35 0 c-28 0 -36 5 -40 23 -3 12 -4 144 -3 292 l3 270 43 3
42 3 0 60 0 59 -148 0 -147 0 -98 -257 c-53 -142 -107 -287 -119 -323 -19 -57
-22 -62 -28 -40 -8 28 -177 472 -213 560 l-23 55 -145 3 c-80 1 -148 -1 -152
-4z"/>
<path d="M6740 1861 l0 -60 43 -3 42 -3 0 -290 0 -290 -37 -3 -38 -3 0 -55 0
-54 294 0 293 0 7 92 c3 50 6 106 6 125 l0 33 -70 0 -70 0 0 -65 c0 -77 -1
-78 -125 -73 l-80 3 -3 123 -3 122 101 0 100 0 0 60 0 60 -100 0 -100 0 0 110
0 110 99 0 99 0 7 -60 7 -60 64 0 64 0 0 120 0 120 -300 0 -300 0 0 -59z"/>
<path d="M7468 1914 c-5 -4 -8 -31 -8 -60 l0 -53 43 -3 42 -3 0 -290 0 -290
-37 -3 -38 -3 0 -55 0 -54 160 0 160 0 0 55 0 55 -35 0 -35 0 0 110 0 110 29
0 c48 0 60 -9 102 -84 92 -160 132 -217 159 -231 18 -9 57 -15 105 -15 l75 0
0 54 c0 52 -1 55 -30 61 -34 7 -57 35 -120 143 -23 40 -55 83 -71 96 -16 14
-29 27 -29 29 0 3 12 8 27 12 65 16 126 91 139 171 9 59 -17 142 -58 181 -63
61 -89 66 -343 71 -126 2 -233 0 -237 -4z m421 -133 c27 -15 51 -62 51 -100 0
-82 -49 -121 -152 -121 l-68 0 0 121 0 122 74 -6 c41 -3 84 -10 95 -16z"/>
<path d="M8150 1860 l0 -60 33 0 c32 0 40 -9 171 -187 l137 -187 -3 -105 -3
-106 -32 -3 c-33 -3 -33 -4 -33 -58 l0 -54 155 0 155 0 0 54 c0 54 0 55 -32
58 l-33 3 -3 105 -3 105 118 160 c166 226 156 215 192 215 l31 0 0 60 0 60
-150 0 -150 0 0 -60 0 -60 36 0 c20 0 34 -4 32 -9 -10 -26 -165 -230 -175
-231 -7 0 -44 47 -82 104 -39 58 -75 107 -81 111 -16 10 -1 25 26 25 23 0 24
3 24 60 l0 60 -165 0 -165 0 0 -60z"/>
<path d="M3412 649 c-108 -18 -200 -88 -243 -184 -34 -75 -33 -209 2 -285 75
-162 249 -217 482 -153 15 4 17 17 17 94 l0 90 -42 -3 -43 -3 -3 -56 c-3 -54
-4 -57 -34 -63 -92 -18 -169 2 -224 58 -108 112 -86 340 39 405 50 25 143 34
199 18 24 -6 27 -13 30 -55 l3 -47 43 -3 43 -3 -3 83 -3 83 -45 11 c-71 17
-160 23 -218 13z"/>
<path d="M4430 653 c-140 -25 -203 -97 -187 -215 9 -70 54 -104 188 -144 150
-44 183 -79 144 -153 -15 -30 -76 -61 -121 -61 -14 0 -45 5 -70 11 -44 11 -44
12 -44 55 l0 44 -50 0 -50 0 0 -79 0 -79 53 -12 c85 -20 192 -24 242 -10 106
30 163 107 153 211 -9 88 -55 128 -186 160 -112 28 -133 39 -147 73 -30 70 26
120 132 120 71 0 93 -14 93 -55 0 -28 2 -29 45 -29 l46 0 -3 67 -3 67 -40 12
c-48 13 -160 24 -195 17z"/>
<path d="M5120 649 c-112 -19 -192 -79 -239 -178 -22 -48 -26 -69 -26 -151 0
-84 3 -102 28 -152 74 -151 253 -203 480 -141 15 4 17 17 17 94 l0 89 -40 0
c-40 0 -40 0 -40 -37 0 -73 -6 -81 -68 -89 -178 -22 -297 114 -265 303 21 122
95 185 217 187 34 1 73 -2 89 -7 25 -7 27 -11 27 -58 l0 -50 43 3 42 3 0 80 0
80 -45 11 c-71 18 -160 23 -220 13z"/>
<path d="M6571 649 c-147 -25 -240 -139 -249 -305 -8 -150 43 -253 152 -309
164 -84 360 -10 427 161 18 46 23 79 23 150 0 82 -3 97 -32 156 -19 39 -46 77
-67 92 -65 50 -160 71 -254 55z m126 -90 c88 -33 133 -147 112 -281 -13 -82
-49 -142 -99 -168 -46 -23 -116 -26 -163 -6 -118 49 -156 271 -67 396 42 58
145 87 217 59z"/>
<path d="M7348 650 c-154 -26 -252 -157 -251 -336 1 -103 25 -167 87 -229 160
-159 432 -87 502 134 24 77 22 190 -5 261 -47 125 -184 195 -333 170z m129
-91 c80 -30 118 -114 111 -243 -6 -114 -48 -187 -121 -215 -45 -17 -114 -13
-157 9 -151 77 -140 376 15 446 36 16 113 18 152 3z"/>
<path d="M8649 650 c-111 -19 -171 -80 -173 -174 0 -62 25 -112 72 -139 18
-11 77 -32 130 -48 129 -37 162 -74 130 -143 -24 -54 -101 -77 -187 -56 l-51
12 0 44 0 44 -50 0 -50 0 0 -79 0 -79 53 -12 c28 -6 86 -14 128 -17 183 -13
304 94 270 240 -17 71 -72 111 -196 141 -96 24 -132 43 -143 75 -29 82 80 140
201 108 23 -6 27 -13 27 -42 0 -35 0 -35 45 -35 l45 0 0 68 0 69 -52 11 c-81
17 -149 21 -199 12z"/>
<path d="M50 606 c0 -33 2 -36 30 -36 l30 0 0 -240 0 -240 -30 0 c-28 0 -30
-2 -30 -40 l0 -40 115 0 115 0 0 40 0 40 -41 0 c-33 0 -40 3 -35 16 3 9 6 49
6 90 l0 74 75 0 c113 0 168 28 207 104 26 51 22 153 -8 193 -49 65 -59 68
-255 71 l-179 3 0 -35z m319 -60 c33 -30 45 -82 32 -128 -16 -53 -58 -78 -133
-78 l-58 0 0 116 0 116 69 -4 c49 -2 75 -9 90 -22z"/>
<path d="M660 605 c0 -33 2 -35 35 -35 l35 0 0 -202 c0 -112 5 -219 10 -238
21 -78 112 -130 224 -130 131 0 230 57 255 145 6 23 11 123 11 233 l0 192 30
0 c28 0 30 3 30 35 l0 35 -115 0 -115 0 0 -35 c0 -34 1 -35 41 -35 l42 0 -7
-197 c-8 -214 -15 -241 -66 -268 -17 -9 -55 -15 -92 -15 -73 0 -122 24 -138
66 -12 31 -16 122 -12 292 l2 122 30 0 c28 0 30 3 30 35 l0 35 -115 0 -115 0
0 -35z"/>
<path d="M1450 605 c0 -32 2 -35 30 -35 l30 0 0 -240 0 -240 -30 0 c-28 0 -30
-2 -30 -41 l0 -41 173 4 c147 3 179 7 218 25 67 30 94 73 94 150 0 74 -20 108
-83 138 -23 11 -41 23 -42 26 0 3 11 11 25 17 63 29 86 138 42 203 -40 61 -71
69 -259 69 l-168 0 0 -35z m315 -60 c19 -18 25 -35 25 -69 0 -37 -5 -48 -31
-70 -25 -22 -41 -26 -90 -26 l-59 0 0 95 0 95 65 0 c57 0 69 -3 90 -25z m0
-259 c33 -14 65 -59 65 -91 0 -29 -30 -74 -60 -90 -17 -9 -56 -15 -95 -15
l-65 0 0 105 0 105 60 0 c33 0 76 -6 95 -14z"/>
<path d="M2110 606 c0 -32 3 -35 33 -38 17 -2 31 -6 30 -10 -2 -5 -3 -111 -3
-238 l0 -230 -30 0 c-28 0 -30 -2 -30 -40 l0 -40 214 0 c186 0 215 2 220 16 3
9 6 49 6 90 l0 74 -39 0 c-42 0 -51 -13 -51 -72 l0 -28 -95 0 -95 0 0 239 0
240 33 3 c28 3 32 7 35 36 l3 32 -115 0 -116 0 0 -34z"/>
<path d="M2740 605 c0 -33 2 -35 35 -35 l36 0 -1 -202 c-1 -112 -4 -220 -7
-240 -5 -34 -9 -38 -34 -38 -27 0 -29 -3 -29 -40 l0 -40 115 0 115 0 0 40 c0
39 -1 40 -35 40 l-35 0 0 224 c0 123 3 231 6 240 4 10 18 16 35 16 26 0 29 3
29 35 l0 35 -115 0 -115 0 0 -35z"/>
<path d="M5560 605 c0 -34 1 -35 37 -35 l36 0 -6 -182 c-4 -99 -7 -207 -7
-240 0 -58 0 -58 -30 -58 -28 0 -30 -2 -30 -40 l0 -40 115 0 115 0 0 40 c0 38
-2 40 -30 40 l-30 0 0 100 0 100 145 0 145 0 0 -100 0 -100 -30 0 c-28 0 -30
-2 -30 -40 l0 -40 115 0 115 0 0 40 c0 39 -1 40 -35 40 l-35 0 0 240 0 240 35
0 c33 0 35 2 35 35 l0 35 -115 0 -115 0 0 -35 c0 -32 2 -35 30 -35 l30 0 0
-100 0 -100 -145 0 -145 0 0 100 0 100 30 0 c28 0 30 3 30 35 l0 35 -115 0
-115 0 0 -35z"/>
<path d="M7850 605 c0 -33 2 -35 35 -35 l35 0 0 -240 0 -240 -35 0 c-34 0 -35
-1 -35 -40 l0 -40 220 0 220 0 0 68 c0 37 3 77 6 89 6 21 3 23 -40 23 -43 0
-46 -1 -46 -27 0 -71 -3 -73 -106 -73 l-94 0 0 209 c0 255 2 271 41 271 26 0
29 3 29 35 l0 35 -115 0 -115 0 0 -35z"/>
</g>
</svg>
